<svg xmlns="http://www.w3.org/2000/svg" width="13.73" height="15.898" viewBox="0 0 13.73 15.898">
  <g id="UI_Essentials_notification_alarm_bell" data-name="UI Essentials_notification_alarm_bell" transform="translate(-3.045 -1)">
    <g id="Group_69128" data-name="Group 69128" transform="translate(3.045 1)">
      <path id="Path_61431" data-name="Path 61431" d="M15.634,13.719H4.187a1.136,1.136,0,0,1-1.007-.583,1.151,1.151,0,0,1,.053-1.166l.583-.9A8.536,8.536,0,0,0,5.247,6.3,4.686,4.686,0,0,1,8.374,1.9a1.761,1.761,0,0,1,3.074,0,4.686,4.686,0,0,1,3.127,4.4A8.536,8.536,0,0,0,16,11.069l.583.9a1.151,1.151,0,0,1,.053,1.166A1.079,1.079,0,0,1,15.634,13.719Z" transform="translate(-3.045 -1)" fill="#fea409"/>
    </g>
    <path id="Path_61432" data-name="Path 61432" d="M11.1,27a2.65,2.65,0,0,0,5.193,0Z" transform="translate(-3.786 -12.221)" fill="#fea409"/>
  </g>
</svg>
