<svg id="infornation-info-circle" xmlns="http://www.w3.org/2000/svg" width="24" height="24" viewBox="0 0 24 24">
  <path id="Path_74963" data-name="Path 74963" d="M0,0H24V24H0Z" fill="none"/>
  <path id="Path_74964" data-name="Path 74964" d="M12,8a.25.25,0,1,0,.251.25A.249.249,0,0,0,12,8" fill="none" stroke="#fea409" stroke-linecap="round" stroke-linejoin="round" stroke-width="1.5"/>
  <path id="Path_74965" data-name="Path 74965" d="M12,21h0a9,9,0,0,1-9-9H3a9,9,0,0,1,9-9h0a9,9,0,0,1,9,9h0A9,9,0,0,1,12,21Z" fill="none" stroke="#fea409" stroke-linecap="round" stroke-linejoin="round" stroke-width="1.5"/>
  <path id="Path_74966" data-name="Path 74966" d="M12,12v5" fill="none" stroke="#fea409" stroke-linecap="round" stroke-linejoin="round" stroke-width="1.5"/>
</svg>
