<svg xmlns="http://www.w3.org/2000/svg" xmlns:xlink="http://www.w3.org/1999/xlink" width="43" height="43" viewBox="0 0 43 43">
  <defs>
    <filter id="Ellipse_2910" x="0" y="0" width="43" height="43" filterUnits="userSpaceOnUse">
      <feOffset dy="3" input="SourceAlpha"/>
      <feGaussianBlur stdDeviation="2.5" result="blur"/>
      <feFlood flood-opacity="0.031"/>
      <feComposite operator="in" in2="blur"/>
      <feComposite in="SourceGraphic"/>
    </filter>
  </defs>
  <g transform="matrix(1, 0, 0, 1, 0, 0)" filter="url(#Ellipse_2910)">
    <circle id="Ellipse_2910-2" data-name="Ellipse 2910" cx="14" cy="14" r="14" transform="translate(7.5 4.5)" fill="#ffeccc" opacity="0.7"/>
  </g>
  <g id="Layer_2" data-name="Layer 2" transform="translate(14.415 9.545)">
    <g id="Layer_1" data-name="Layer 1" transform="translate(0.006 -0.002)">
      <path id="Path_75303" data-name="Path 75303" d="M157.955,205.71a4.109,4.109,0,1,1,4.148-4.076A4.13,4.13,0,0,1,157.955,205.71Zm.008-.522a3.57,3.57,0,1,0-2.527-1.053A3.574,3.574,0,0,0,157.963,205.188Z" transform="translate(-151.391 -194.305)"/>
      <path id="Path_75304" data-name="Path 75304" d="M665.936,420.234a2.531,2.531,0,1,1,2.45,2.6A2.536,2.536,0,0,1,665.936,420.234Zm2.515,2.138a2.043,2.043,0,0,0,2.074-2.052,2.067,2.067,0,1,0-2.074,2.052Z" transform="translate(-655.189 -411.043)"/>
      <path id="Path_75305" data-name="Path 75305" d="M125.34,865.7a2.53,2.53,0,1,1-2.521-2.534A2.548,2.548,0,0,1,125.34,865.7Zm-2.52,2.062a2.07,2.07,0,1,0-2.072-2.062A2.056,2.056,0,0,0,122.82,867.763Z" transform="translate(-118.339 -849.238)"/>
      <path id="Path_75306" data-name="Path 75306" d="M16,114.438a2.973,2.973,0,0,1,4.356-2.747c.151.087.224.31.333.471a1.789,1.789,0,0,1-.53-.08,2.51,2.51,0,0,0-2.829,4.112,1.944,1.944,0,0,1,.277.467c-.188-.042-.423-.028-.557-.137A2.813,2.813,0,0,1,16,114.438Z" transform="translate(-15.737 -109.524)"/>
      <path id="Path_75307" data-name="Path 75307" d="M505.643,45.367a1.377,1.377,0,1,1-2.753-.025,1.4,1.4,0,0,1,1.391-1.349A1.384,1.384,0,0,1,505.643,45.367Zm-.452-.032a.921.921,0,0,0-1.841.041.921.921,0,1,0,1.841-.04Z" transform="translate(-494.775 -43.282)"/>
      <path id="Path_75308" data-name="Path 75308" d="M19.562,605.265a1.374,1.374,0,0,1-2.748-.059,1.374,1.374,0,1,1,2.748.059ZM18.2,604.3a.928.928,0,0,0-.923.9.908.908,0,0,0,.94.928.921.921,0,0,0,.9-.919A.936.936,0,0,0,18.2,604.3Z" transform="translate(-16.543 -594.109)"/>
      <path id="Path_75309" data-name="Path 75309" d="M796.266,1.4a1.373,1.373,0,0,1-2.747-.022,1.373,1.373,0,1,1,2.747.022Zm-.454-.005a.92.92,0,0,0-1.838-.067.92.92,0,1,0,1.838.067Z" transform="translate(-780.715 0.002)"/>
      <path id="Path_75310" data-name="Path 75310" d="M458.7,729.869a1.665,1.665,0,0,1-.01-3.329,1.665,1.665,0,1,1,.01,3.329Zm0-.309a1.356,1.356,0,0,0,1.358-1.374,1.364,1.364,0,0,0-2.727.02A1.339,1.339,0,0,0,458.7,729.56Z" transform="translate(-449.654 -714.816)"/>
      <path id="Path_75311" data-name="Path 75311" d="M3.3,990.477a2.181,2.181,0,0,1-.389.373,1.963,1.963,0,1,1-1.637-3.559,1.115,1.115,0,0,1,.431.035c-.09.106-.16.254-.274.313a1.6,1.6,0,0,0-.876,2.14,1.593,1.593,0,0,0,2.248.671,2.849,2.849,0,0,1,.409-.123Z" transform="translate(-0.006 -971.345)"/>
      <path id="Path_75312" data-name="Path 75312" d="M66.213,175.625a1.414,1.414,0,0,1-.013-1.574,1.534,1.534,0,0,1,1.3-.931A2.217,2.217,0,0,0,66.213,175.625Z" transform="translate(-64.901 -170.326)"/>
      <path id="Path_75313" data-name="Path 75313" d="M51.664,1027.34l-.858.964C50.666,1027.785,51.01,1027.373,51.664,1027.34Z" transform="translate(-49.956 -1010.762)"/>
      <path id="Path_75314" data-name="Path 75314" d="M230.226,262.515a7.32,7.32,0,0,0-1.883.974,6.873,6.873,0,0,0-1.024,1.8,2.519,2.519,0,0,1,2.907-2.779Z" transform="translate(-223.562 -258.168)"/>
      <path id="Path_75315" data-name="Path 75315" d="M720.037,465.817a1.829,1.829,0,0,0-1.691,1.795A1.422,1.422,0,0,1,720.037,465.817Z" transform="translate(-706.681 -458.271)"/>
      <path id="Path_75316" data-name="Path 75316" d="M172.635,908.718a1.825,1.825,0,0,0-1.668,1.68.99.99,0,0,1,.251-1.2A1.317,1.317,0,0,1,172.635,908.718Z" transform="translate(-168.103 -894)"/>
    </g>
  </g>
</svg>
