<svg xmlns="http://www.w3.org/2000/svg" xmlns:xlink="http://www.w3.org/1999/xlink" width="34" height="34" viewBox="0 0 34 34">
  <defs>
    <clipPath id="clip-path">
      <path id="_Icon_小olor" data-name=" Icon 小olor" d="M17,14H3a3,3,0,0,1-3-3V3A3,3,0,0,1,3,0H17a3,3,0,0,1,3,3v8A3,3,0,0,1,17,14ZM2,6v5a1,1,0,0,0,1,1H17a1,1,0,0,0,1-1V6ZM3,2A1,1,0,0,0,2,3V4H18V3a1,1,0,0,0-1-1Zm12,8H13a1,1,0,1,1,0-2h2a1,1,0,1,1,0,2ZM9,10H5A1,1,0,1,1,5,8H9a1,1,0,1,1,0,2Z" fill="#fea409" stroke="rgba(0,0,0,0)" stroke-width="1"/>
    </clipPath>
  </defs>
  <circle id="Oval_Copy_2" data-name="Oval Copy 2" cx="17" cy="17" r="17" fill="#fea409" opacity="0.21"/>
  <g id="_01_Icons_Filled_alert-circle-fill" data-name="01) Icons/Filled/alert-circle-fill" transform="translate(5 5)">
    <rect id="_01_Icons_Line_credit-card_background" data-name="01) Icons/Line/credit-card background" width="24" height="24" fill="none" stroke="rgba(0,0,0,0)" stroke-width="1"/>
    <g id="Group_31" data-name="Group 31" transform="translate(2 5)">
      <path id="_Icon_小olor-2" data-name=" Icon 小olor" d="M17,14H3a3,3,0,0,1-3-3V3A3,3,0,0,1,3,0H17a3,3,0,0,1,3,3v8A3,3,0,0,1,17,14ZM2,6v5a1,1,0,0,0,1,1H17a1,1,0,0,0,1-1V6ZM3,2A1,1,0,0,0,2,3V4H18V3a1,1,0,0,0-1-1Zm12,8H13a1,1,0,1,1,0-2h2a1,1,0,1,1,0,2ZM9,10H5A1,1,0,1,1,5,8H9a1,1,0,1,1,0,2Z" fill="#fea409" stroke="rgba(0,0,0,0)" stroke-width="1"/>
    </g>
  </g>
</svg>
