<svg id="Component_33_1" data-name="Component 33 – 1" xmlns="http://www.w3.org/2000/svg" xmlns:xlink="http://www.w3.org/1999/xlink" width="247.398" height="26.171" viewBox="0 0 247.398 26.171">
  <defs>
    <linearGradient id="linear-gradient" x1="0.587" y1="0.393" x2="0.187" y2="0.757" gradientUnits="objectBoundingBox">
      <stop offset="0" stop-color="#fea409"/>
      <stop offset="1" stop-color="#fe7309"/>
    </linearGradient>
  </defs>
  <g id="Group_69723" data-name="Group 69723" transform="translate(140.819)">
    <path id="Path_74932" data-name="Path 74932" d="M327.218,278.618a1.1,1.1,0,0,1,.371.022,7.754,7.754,0,0,1,1,.063,12.045,12.045,0,0,1,1.46.256.957.957,0,0,1,.322.124c-1.285,1.285-2.557,2.585-3.853,3.857a6.854,6.854,0,0,0-2.553.895,6.712,6.712,0,0,0-2.5,2.681,6.805,6.805,0,0,0-.679,2.345,2.839,2.839,0,0,0-.038.73c.071.268-.011.552.074.817a5.312,5.312,0,0,1,.15.757c.064.223.168.434.226.66.041.156.158.334.345.272.768-.842,1.594-1.633,2.4-2.445q2.474-2.476,4.941-4.959,2.09-2.139,4.207-4.252c.169-.193.377.076.535.164a10.776,10.776,0,0,1,4.447,7.358c.071.272.008.56.084.832.031.461.008.925.012,1.387.012.183-.056.357-.055.539,0,.325-.141.629-.172.951a6.553,6.553,0,0,1-.243.994,10.866,10.866,0,0,1-1.948,3.674,12.714,12.714,0,0,1-1.025,1.091q-3.613,3.638-7.244,7.258a.238.238,0,0,1-.186.09,3.052,3.052,0,0,1-.384-.362q-1.279-1.285-2.563-2.565c-.381-.4-.795-.763-1.153-1.179.834-.87,1.7-1.71,2.542-2.573a2.157,2.157,0,0,1,.421-.389.2.2,0,0,1,.22.05c.306.275.576.587.87.874a.205.205,0,0,0,.242-.066c.519-.562,1.07-1.094,1.619-1.627.752-.8,1.56-1.544,2.321-2.335a10.293,10.293,0,0,0,1.243-1.356,5.593,5.593,0,0,0,.818-1.55,3.422,3.422,0,0,0,.205-.629,6.9,6.9,0,0,1,.167-.794c.021-.3.008-.592.013-.888a5.993,5.993,0,0,0-.6-2.7c-.035-.143-.218-.109-.286-.014-.733.748-1.477,1.487-2.2,2.247-1.469,1.485-2.949,2.96-4.416,4.447-1.7,1.686-3.359,3.4-5.057,5.089-.07.09-.193.062-.29.059-.536-.522-1.064-1.053-1.591-1.584a10.661,10.661,0,0,1-2.524-4.466,3.682,3.682,0,0,1-.19-.748c-.015-.393-.182-.764-.182-1.159a8.047,8.047,0,0,1-.052-1.322c-.021-.318.08-.626.064-.944a11.32,11.32,0,0,1,.919-3.365,10.732,10.732,0,0,1,8.6-6.225C326.444,278.616,326.837,278.692,327.218,278.618Z" transform="translate(-316.48 -278.608)" fill="url(#linear-gradient)"/>
  </g>
  <path id="Path_74936" data-name="Path 74936" d="M246.882-24.941a.693.693,0,0,1-.785.785H229.16a.685.685,0,0,1-.764-.785V-33.41a1.521,1.521,0,0,0-.443-1.086,1.521,1.521,0,0,0-1.086-.443,1.545,1.545,0,0,0-1.106.443,1.521,1.521,0,0,0-.443,1.086v23.093a1.545,1.545,0,0,0,.443,1.106,1.545,1.545,0,0,0,1.106.443,1.521,1.521,0,0,0,1.086-.443,1.545,1.545,0,0,0,.443-1.106v-10a.676.676,0,0,1,.764-.764H246.1a.685.685,0,0,1,.785.764v10a1.545,1.545,0,0,0,.443,1.106,1.477,1.477,0,0,0,1.086.443,1.477,1.477,0,0,0,1.086-.443,1.51,1.51,0,0,0,.463-1.106V-33.41A1.487,1.487,0,0,0,249.5-34.5a1.477,1.477,0,0,0-1.086-.443,1.477,1.477,0,0,0-1.086.443,1.521,1.521,0,0,0-.443,1.086Zm14-10a7.426,7.426,0,0,0-5.451,2.253,7.4,7.4,0,0,0-2.253,5.431v16.938a1.545,1.545,0,0,0,.443,1.106,1.545,1.545,0,0,0,1.106.443,1.521,1.521,0,0,0,1.086-.443,1.545,1.545,0,0,0,.443-1.106V-27.255a4.439,4.439,0,0,1,1.348-3.259,4.506,4.506,0,0,1,3.279-1.348h9.233a4.439,4.439,0,0,1,3.259,1.348,4.407,4.407,0,0,1,1.368,3.259v16.938a1.545,1.545,0,0,0,.443,1.106,1.477,1.477,0,0,0,1.086.443,1.477,1.477,0,0,0,1.086-.443,1.51,1.51,0,0,0,.463-1.106V-27.255a7.4,7.4,0,0,0-2.253-5.431,7.426,7.426,0,0,0-5.451-2.253Zm41.72,10a.693.693,0,0,1-.785.785H284.88a.685.685,0,0,1-.764-.785V-33.41a1.521,1.521,0,0,0-.443-1.086,1.521,1.521,0,0,0-1.086-.443,1.545,1.545,0,0,0-1.106.443,1.521,1.521,0,0,0-.443,1.086v23.093a1.545,1.545,0,0,0,.443,1.106,1.545,1.545,0,0,0,1.106.443,1.521,1.521,0,0,0,1.086-.443,1.545,1.545,0,0,0,.443-1.106v-10a.676.676,0,0,1,.764-.764h16.938a.685.685,0,0,1,.785.764v10a1.545,1.545,0,0,0,.443,1.106,1.477,1.477,0,0,0,1.086.443,1.477,1.477,0,0,0,1.086-.443,1.51,1.51,0,0,0,.463-1.106V-33.41a1.487,1.487,0,0,0-.463-1.086,1.477,1.477,0,0,0-1.086-.443,1.477,1.477,0,0,0-1.086.443,1.521,1.521,0,0,0-.443,1.086Z" transform="translate(-58.281 34.939)" fill="#191b20"/>
  <path id="Path_74935" data-name="Path 74935" d="M25.241-31.861a1.445,1.445,0,0,0,1.086-.463,1.445,1.445,0,0,0,.463-1.086,1.487,1.487,0,0,0-.463-1.086,1.477,1.477,0,0,0-1.086-.443H8.3a5.916,5.916,0,0,0-4.345,1.79,5.949,5.949,0,0,0-1.81,4.365v1.529a5.949,5.949,0,0,0,1.81,4.365A5.883,5.883,0,0,0,8.3-21.079H20.635a3,3,0,0,1,2.173.885A2.986,2.986,0,0,1,23.713-18v3.078a2.963,2.963,0,0,1-.905,2.173,2.963,2.963,0,0,1-2.173.905H3.7a1.545,1.545,0,0,0-1.106.443,1.521,1.521,0,0,0-.443,1.086,1.545,1.545,0,0,0,.443,1.106A1.545,1.545,0,0,0,3.7-8.768H20.635a5.926,5.926,0,0,0,4.345-1.81,5.883,5.883,0,0,0,1.81-4.345V-18a5.949,5.949,0,0,0-1.81-4.365,5.959,5.959,0,0,0-4.345-1.79H8.3a2.963,2.963,0,0,1-2.173-.905,2.986,2.986,0,0,1-.905-2.193v-1.529a2.92,2.92,0,0,1,.905-2.173A2.963,2.963,0,0,1,8.3-31.861Zm26.332,6.92a.693.693,0,0,1-.785.785H33.851a.685.685,0,0,1-.764-.785V-33.41a1.521,1.521,0,0,0-.443-1.086,1.521,1.521,0,0,0-1.086-.443,1.545,1.545,0,0,0-1.106.443,1.521,1.521,0,0,0-.443,1.086v23.093a1.545,1.545,0,0,0,.443,1.106,1.545,1.545,0,0,0,1.106.443,1.521,1.521,0,0,0,1.086-.443,1.545,1.545,0,0,0,.443-1.106v-10a.676.676,0,0,1,.764-.764H50.788a.685.685,0,0,1,.785.764v10a1.545,1.545,0,0,0,.443,1.106,1.477,1.477,0,0,0,1.086.443,1.477,1.477,0,0,0,1.086-.443,1.51,1.51,0,0,0,.463-1.106V-33.41a1.487,1.487,0,0,0-.463-1.086,1.477,1.477,0,0,0-1.086-.443,1.477,1.477,0,0,0-1.086.443,1.521,1.521,0,0,0-.443,1.086ZM80.962-8.768a1.477,1.477,0,0,0,1.086-.443,1.51,1.51,0,0,0,.463-1.106,1.487,1.487,0,0,0-.463-1.086,1.477,1.477,0,0,0-1.086-.443H59.418a1.545,1.545,0,0,0-1.106.443,1.521,1.521,0,0,0-.443,1.086,1.545,1.545,0,0,0,.443,1.106,1.545,1.545,0,0,0,1.106.443Zm0-12.311a1.445,1.445,0,0,0,1.086-.463,1.445,1.445,0,0,0,.463-1.086,1.445,1.445,0,0,0-.463-1.086,1.477,1.477,0,0,0-1.086-.443H59.418a1.545,1.545,0,0,0-1.106.443,1.477,1.477,0,0,0-.443,1.086,1.477,1.477,0,0,0,.443,1.086,1.51,1.51,0,0,0,1.106.463ZM57.869-33.41a1.477,1.477,0,0,0,.443,1.086,1.51,1.51,0,0,0,1.106.463H80.962a1.445,1.445,0,0,0,1.086-.463,1.445,1.445,0,0,0,.463-1.086,1.487,1.487,0,0,0-.463-1.086,1.477,1.477,0,0,0-1.086-.443H59.418a1.545,1.545,0,0,0-1.106.443A1.521,1.521,0,0,0,57.869-33.41Zm49.425,8.469a.693.693,0,0,1-.785.785H89.572a.685.685,0,0,1-.764-.785V-33.41a1.521,1.521,0,0,0-.443-1.086,1.521,1.521,0,0,0-1.086-.443,1.545,1.545,0,0,0-1.106.443,1.521,1.521,0,0,0-.443,1.086v23.093a1.545,1.545,0,0,0,.443,1.106,1.545,1.545,0,0,0,1.106.443,1.521,1.521,0,0,0,1.086-.443,1.545,1.545,0,0,0,.443-1.106v-10a.676.676,0,0,1,.764-.764h16.938a.685.685,0,0,1,.785.764v10a1.545,1.545,0,0,0,.443,1.106,1.477,1.477,0,0,0,1.086.443,1.477,1.477,0,0,0,1.086-.443,1.51,1.51,0,0,0,.463-1.106V-33.41a1.487,1.487,0,0,0-.463-1.086,1.477,1.477,0,0,0-1.086-.443,1.477,1.477,0,0,0-1.086.443,1.521,1.521,0,0,0-.443,1.086Zm9.374-4.848a.3.3,0,0,1,.2-.3.306.306,0,0,1,.342.1L134.229-9.332a1.467,1.467,0,0,0,1.187.563h1.267a1.477,1.477,0,0,0,1.086-.443,1.51,1.51,0,0,0,.463-1.106V-33.41a1.487,1.487,0,0,0-.463-1.086,1.477,1.477,0,0,0-1.086-.443,1.477,1.477,0,0,0-1.086.443,1.521,1.521,0,0,0-.443,1.086v19.492a.265.265,0,0,1-.2.282.271.271,0,0,1-.342-.08L117.593-34.376a1.467,1.467,0,0,0-1.187-.563h-1.267a1.545,1.545,0,0,0-1.106.443,1.521,1.521,0,0,0-.443,1.086v23.093a1.545,1.545,0,0,0,.443,1.106,1.545,1.545,0,0,0,1.106.443,1.521,1.521,0,0,0,1.086-.443,1.545,1.545,0,0,0,.443-1.106Z" transform="translate(-2.148 34.939)" fill="#191b20"/>
</svg>
