<svg id="home-house-line" xmlns="http://www.w3.org/2000/svg" width="24" height="24" viewBox="0 0 24 24">
  <path id="Path_58700" data-name="Path 58700" d="M0,0H24V24H0Z" fill="none"/>
  <g id="Group_69961" data-name="Group 69961">
    <path id="Path_74941" data-name="Path 74941" d="M17,16.125V18H15" fill="none" stroke="#fea409" stroke-linecap="round" stroke-linejoin="round" stroke-width="1.5"/>
    <path id="Path_74942" data-name="Path 74942" d="M6,9.5h8" fill="none" stroke="#fea409" stroke-linecap="round" stroke-linejoin="round" stroke-width="1.5"/>
    <path id="Path_74943" data-name="Path 74943" d="M6,6.18h8" fill="none" stroke="#fea409" stroke-linecap="round" stroke-linejoin="round" stroke-width="1.5"/>
    <path id="Path_74944" data-name="Path 74944" d="M6.05,13H10" fill="none" stroke="#fea409" stroke-linecap="round" stroke-linejoin="round" stroke-width="1.5"/>
    <path id="Path_74945" data-name="Path 74945" d="M16.5,22.125a4.5,4.5,0,1,0-4.5-4.5,4.5,4.5,0,0,0,4.5,4.5" fill="none" stroke="#fea409" stroke-linecap="round" stroke-linejoin="round" stroke-width="1.5"/>
    <path id="Path_74946" data-name="Path 74946" d="M12.016,18H5a2,2,0,0,1-2-2V4A2,2,0,0,1,5,2H15a2,2,0,0,1,2,2v9.152" fill="none" stroke="#fea409" stroke-linecap="round" stroke-linejoin="round" stroke-width="1.5"/>
  </g>
</svg>
